<?xml version="1.0" standalone="no"?>
<!DOCTYPE svg PUBLIC "-//W3C//DTD SVG 1.1//EN"
"http://www.w3.org/Graphics/SVG/1.1/DTD/svg11.dtd">

<svg width="784" height="743" view_box="0 0 784 743"
xmlns="http://www.w3.org/2000/svg"
xmlns:link="http://www.w3.org/1999/xlink">\n\n<desc>Généré par Mocodo 2.3.7 le Wed, 08 Jun 2022 23:00:48</desc>

<rect id="frame" x="0" y="0" width="784" height="743" fill="#ffffbf" stroke="none" stroke-width="0"/>

<!-- Association APPARTENIR -->
<line x1="577" y1="692" x2="420" y2="692" stroke="#f46d43" stroke-width="2"/>
<text x="502" y="709.0" fill="#3288bd" font-family="Verdana" font-size="12">1,N</text>
<line x1="229" y1="692" x2="420" y2="692" stroke="#f46d43" stroke-width="2"/>
<text x="282" y="709.0" fill="#3288bd" font-family="Verdana" font-size="12">1,1</text>
<g id="association-APPARTENIR">
	<path d="M 452 667 a 14 14 90 0 1 14 14 V 692 h -92 V 681 a 14 14 90 0 1 14 -14" fill="#fdae61" stroke="#fdae61" stroke-width="0"/>
	<path d="M 466 692.0 v 11 a 14 14 90 0 1 -14 14 H 388 a 14 14 90 0 1 -14 -14 V 692.0 H 92" fill="#fee08b" stroke="#fee08b" stroke-width="0"/>
	<rect x="374" y="667" width="92" height="50" fill="none" rx="14" stroke="#f46d43" stroke-width="2"/>
	<line x1="374" y1="692" x2="466" y2="692" stroke="#f46d43" stroke-width="1"/>
	<text x="381" y="684.7" fill="#000000" font-family="Verdana" font-size="12">APPARTENIR</text>
</g>

<!-- Association POSSEDE -->
<line x1="420" y1="574" x2="55" y2="692" stroke="#f46d43" stroke-width="2"/>
<text x="347" y="583.389217333" fill="#3288bd" font-family="Verdana" font-size="12">0,N</text>
<line x1="229" y1="692" x2="55" y2="692" stroke="#f46d43" stroke-width="2"/>
<text x="155" y="709.0" fill="#3288bd" font-family="Verdana" font-size="12">1,1</text>
<g id="association-POSSEDE">
	<path d="M 78 667 a 14 14 90 0 1 14 14 V 692 h -74 V 681 a 14 14 90 0 1 14 -14" fill="#fdae61" stroke="#fdae61" stroke-width="0"/>
	<path d="M 92 692.0 v 11 a 14 14 90 0 1 -14 14 H 32 a 14 14 90 0 1 -14 -14 V 692.0 H 74" fill="#fee08b" stroke="#fee08b" stroke-width="0"/>
	<rect x="18" y="667" width="74" height="50" fill="none" rx="14" stroke="#f46d43" stroke-width="2"/>
	<line x1="18" y1="692" x2="92" y2="692" stroke="#f46d43" stroke-width="1"/>
	<text x="25" y="684.7" fill="#000000" font-family="Verdana" font-size="12">POSSEDE</text>
</g>

<!-- Association CORRESPOND -->
<line x1="420" y1="574" x2="229" y2="574" stroke="#f46d43" stroke-width="2"/>
<text x="348" y="591.0" fill="#3288bd" font-family="Verdana" font-size="12">1,1</text>
<line x1="55" y1="574" x2="229" y2="574" stroke="#f46d43" stroke-width="2"/>
<text x="102" y="591.0" fill="#3288bd" font-family="Verdana" font-size="12">1,N</text>
<g id="association-CORRESPOND">
	<path d="M 265 549 a 14 14 90 0 1 14 14 V 574 h -100 V 563 a 14 14 90 0 1 14 -14" fill="#fdae61" stroke="#fdae61" stroke-width="0"/>
	<path d="M 279 574.0 v 11 a 14 14 90 0 1 -14 14 H 193 a 14 14 90 0 1 -14 -14 V 574.0 H 100" fill="#fee08b" stroke="#fee08b" stroke-width="0"/>
	<rect x="179" y="549" width="100" height="50" fill="none" rx="14" stroke="#f46d43" stroke-width="2"/>
	<line x1="179" y1="574" x2="279" y2="574" stroke="#f46d43" stroke-width="1"/>
	<text x="186" y="566.7" fill="#000000" font-family="Verdana" font-size="12">CORRESPOND</text>
</g>

<!-- Association ETRE AFFILIE -->
<line x1="420" y1="220" x2="550" y2="127" stroke="#f46d43" stroke-width="2"/>
<text x="445.961081751" y="178" fill="#3288bd" font-family="Verdana" font-size="12">0,N</text>
<line x1="650" y1="43" x2="550" y2="127" stroke="#f46d43" stroke-width="2"/>
<text x="608.31909738" y="94" fill="#3288bd" font-family="Verdana" font-size="12">0,N</text>
<g id="association-ETRE AFFILIE">
	<path d="M 585 102 a 14 14 90 0 1 14 14 V 127 h -98 V 116 a 14 14 90 0 1 14 -14" fill="#fdae61" stroke="#fdae61" stroke-width="0"/>
	<path d="M 599 127.0 v 11 a 14 14 90 0 1 -14 14 H 515 a 14 14 90 0 1 -14 -14 V 127.0 H 98" fill="#fee08b" stroke="#fee08b" stroke-width="0"/>
	<rect x="501" y="102" width="98" height="50" fill="none" rx="14" stroke="#f46d43" stroke-width="2"/>
	<line x1="501" y1="127" x2="599" y2="127" stroke="#f46d43" stroke-width="1"/>
	<text x="508" y="119.7" fill="#000000" font-family="Verdana" font-size="12">ETRE AFFILIE</text>
</g>

<!-- Association PEUT AJOUTER -->
<line x1="723" y1="320" x2="700" y2="127" stroke="#f46d43" stroke-width="2"/>
<text x="719.009953994" y="244" fill="#3288bd" font-family="Verdana" font-size="12">0,N</text>
<line x1="650" y1="43" x2="700" y2="127" stroke="#f46d43" stroke-width="2"/>
<text x="647.849737625" y="94" fill="#3288bd" font-family="Verdana" font-size="12">0,N</text>
<g id="association-PEUT AJOUTER">
	<path d="M 739 102 a 14 14 90 0 1 14 14 V 127 h -106 V 116 a 14 14 90 0 1 14 -14" fill="#fdae61" stroke="#fdae61" stroke-width="0"/>
	<path d="M 753 127.0 v 11 a 14 14 90 0 1 -14 14 H 661 a 14 14 90 0 1 -14 -14 V 127.0 H 106" fill="#fee08b" stroke="#fee08b" stroke-width="0"/>
	<rect x="647" y="102" width="106" height="50" fill="none" rx="14" stroke="#f46d43" stroke-width="2"/>
	<line x1="647" y1="127" x2="753" y2="127" stroke="#f46d43" stroke-width="1"/>
	<text x="654" y="119.7" fill="#000000" font-family="Verdana" font-size="12">PEUT AJOUTER</text>
</g>

<!-- Association PEUT CONSULTER -->
<line x1="723" y1="320" x2="577" y2="220" stroke="#f46d43" stroke-width="2"/>
<text x="644" y="296.150604049" fill="#3288bd" font-family="Verdana" font-size="12">0,N</text>
<line x1="380" y1="100" x2="577" y2="220" stroke="#f46d43" stroke-width="2"/>
<text x="418" y="116.81215867" fill="#3288bd" font-family="Verdana" font-size="12">0,N</text>
<line x1="420" y1="422" x2="577" y2="220" stroke="#f46d43" stroke-width="2"/>
<text x="465" y="381.707768899" fill="#3288bd" font-family="Verdana" font-size="12">0,N</text>
<line x1="420" y1="220" x2="577" y2="220" stroke="#f46d43" stroke-width="2"/>
<text x="488" y="237.0" fill="#3288bd" font-family="Verdana" font-size="12">0,N</text>
<g id="association-PEUT CONSULTER">
	<path d="M 625 195 a 14 14 90 0 1 14 14 V 220 h -124 V 209 a 14 14 90 0 1 14 -14" fill="#fdae61" stroke="#fdae61" stroke-width="0"/>
	<path d="M 639 220.0 v 11 a 14 14 90 0 1 -14 14 H 529 a 14 14 90 0 1 -14 -14 V 220.0 H 124" fill="#fee08b" stroke="#fee08b" stroke-width="0"/>
	<rect x="515" y="195" width="124" height="50" fill="none" rx="14" stroke="#f46d43" stroke-width="2"/>
	<line x1="515" y1="220" x2="639" y2="220" stroke="#f46d43" stroke-width="1"/>
	<text x="522" y="212.7" fill="#000000" font-family="Verdana" font-size="12">PEUT CONSULTER</text>
</g>

<!-- Association PEUT AJOUTER ET MODIFIER -->
<line x1="55" y1="320" x2="229" y2="220" stroke="#f46d43" stroke-width="2"/>
<text x="106" y="306.099508703" fill="#3288bd" font-family="Verdana" font-size="12">0,N</text>
<line x1="380" y1="100" x2="229" y2="220" stroke="#f46d43" stroke-width="2"/>
<text x="320" y="124.159676596" fill="#3288bd" font-family="Verdana" font-size="12">1,N</text>
<line x1="420" y1="422" x2="229" y2="220" stroke="#f46d43" stroke-width="2"/>
<text x="353" y="389.905121038" fill="#3288bd" font-family="Verdana" font-size="12">1,N</text>
<line x1="420" y1="220" x2="229" y2="220" stroke="#f46d43" stroke-width="2"/>
<text x="330" y="237.0" fill="#3288bd" font-family="Verdana" font-size="12">1,N</text>
<line x1="420" y1="574" x2="229" y2="220" stroke="#f46d43" stroke-width="2"/>
<text x="384.105120956" y="498" fill="#3288bd" font-family="Verdana" font-size="12">0,N</text>
<g id="association-PEUT AJOUTER ET MODIFIER">
	<path d="M 311 195 a 14 14 90 0 1 14 14 V 220 h -192 V 209 a 14 14 90 0 1 14 -14" fill="#fdae61" stroke="#fdae61" stroke-width="0"/>
	<path d="M 325 220.0 v 11 a 14 14 90 0 1 -14 14 H 147 a 14 14 90 0 1 -14 -14 V 220.0 H 192" fill="#fee08b" stroke="#fee08b" stroke-width="0"/>
	<rect x="133" y="195" width="192" height="50" fill="none" rx="14" stroke="#f46d43" stroke-width="2"/>
	<line x1="133" y1="220" x2="325" y2="220" stroke="#f46d43" stroke-width="1"/>
	<text x="140" y="212.7" fill="#000000" font-family="Verdana" font-size="12">PEUT AJOUTER ET MODIFIER</text>
</g>

<!-- Association PEUT PARTICIPER -->
<line x1="723" y1="320" x2="577" y2="574" stroke="#f46d43" stroke-width="2"/>
<text x="684.449019352" y="405" fill="#3288bd" font-family="Verdana" font-size="12">0,N</text>
<line x1="420" y1="574" x2="577" y2="574" stroke="#f46d43" stroke-width="2"/>
<text x="471" y="591.0" fill="#3288bd" font-family="Verdana" font-size="12">0,1</text>
<g id="association-PEUT PARTICIPER">
	<path d="M 625 549 a 14 14 90 0 1 14 14 V 574 h -124 V 563 a 14 14 90 0 1 14 -14" fill="#fdae61" stroke="#fdae61" stroke-width="0"/>
	<path d="M 639 574.0 v 11 a 14 14 90 0 1 -14 14 H 529 a 14 14 90 0 1 -14 -14 V 574.0 H 124" fill="#fee08b" stroke="#fee08b" stroke-width="0"/>
	<rect x="515" y="549" width="124" height="50" fill="none" rx="14" stroke="#f46d43" stroke-width="2"/>
	<line x1="515" y1="574" x2="639" y2="574" stroke="#f46d43" stroke-width="1"/>
	<text x="522" y="566.7" fill="#000000" font-family="Verdana" font-size="12">PEUT PARTICIPER</text>
</g>

<!-- Association ASSOCIER -->
<line x1="420" y1="220" x2="420" y2="313" stroke="#f46d43" stroke-width="2"/>
<text x="425.0" y="271" fill="#3288bd" font-family="Verdana" font-size="12">0,N</text>
<line x1="420" y1="422" x2="420" y2="313" stroke="#f46d43" stroke-width="2"/>
<text x="425.0" y="355" fill="#3288bd" font-family="Verdana" font-size="12">0,N</text>
<g id="association-ASSOCIER">
	<path d="M 445 288 a 14 14 90 0 1 14 14 V 313 h -78 V 302 a 14 14 90 0 1 14 -14" fill="#fdae61" stroke="#fdae61" stroke-width="0"/>
	<path d="M 459 313.0 v 11 a 14 14 90 0 1 -14 14 H 395 a 14 14 90 0 1 -14 -14 V 313.0 H 78" fill="#fee08b" stroke="#fee08b" stroke-width="0"/>
	<rect x="381" y="288" width="78" height="50" fill="none" rx="14" stroke="#f46d43" stroke-width="2"/>
	<line x1="381" y1="313" x2="459" y2="313" stroke="#f46d43" stroke-width="1"/>
	<text x="388" y="305.7" fill="#000000" font-family="Verdana" font-size="12">ASSOCIER</text>
</g>

<!-- Association APPARAIT -->
<line x1="420" y1="422" x2="577" y2="422" stroke="#f46d43" stroke-width="2"/>
<text x="465" y="439.0" fill="#3288bd" font-family="Verdana" font-size="12">0,N</text>
<line x1="420" y1="574" x2="577" y2="422" stroke="#f46d43" stroke-width="2"/>
<text x="471" y="539.555757719" fill="#3288bd" font-family="Verdana" font-size="12">0,N</text>
<g id="association-APPARAIT">
	<path d="M 601 397 a 14 14 90 0 1 14 14 V 422 h -76 V 411 a 14 14 90 0 1 14 -14" fill="#fdae61" stroke="#fdae61" stroke-width="0"/>
	<path d="M 615 422.0 v 11 a 14 14 90 0 1 -14 14 H 553 a 14 14 90 0 1 -14 -14 V 422.0 H 76" fill="#fee08b" stroke="#fee08b" stroke-width="0"/>
	<rect x="539" y="397" width="76" height="50" fill="none" rx="14" stroke="#f46d43" stroke-width="2"/>
	<line x1="539" y1="422" x2="615" y2="422" stroke="#f46d43" stroke-width="1"/>
	<text x="546" y="414.7" fill="#000000" font-family="Verdana" font-size="12">APPARAIT</text>
</g>

<!-- Entity ARTICLES -->
<g id="entity-ARTICLES">
	<g id="frame-ARTICLES">
		<rect x="380" y="363" width="80" height="25" fill="#abdda4" stroke="#abdda4" stroke-width="0"/>
		<rect x="380" y="388.0" width="80" height="93" fill="#e6f598" stroke="#e6f598" stroke-width="0"/>
		<rect x="380" y="363" width="80" height="118" fill="none" stroke="#66c2a5" stroke-width="2"/>
		<line x1="380" y1="388" x2="460" y2="388" stroke="#66c2a5" stroke-width="1"/>
	</g>
	<text x="389" y="380.7" fill="#000000" font-family="Verdana" font-size="12">ARTICLES</text>
	<text x="385" y="405.7" fill="#000000" font-family="Verdana" font-size="12">code article</text>
	<line x1="385" y1="408" x2="455" y2="408" stroke="#000000" stroke-width="1"/>
	<text x="385" y="422.8" fill="#000000" font-family="Verdana" font-size="12">nom</text>
	<text x="385" y="439.8" fill="#000000" font-family="Verdana" font-size="12">auteur</text>
	<text x="385" y="456.8" fill="#000000" font-family="Verdana" font-size="12">texte</text>
	<text x="385" y="473.8" fill="#000000" font-family="Verdana" font-size="12">niveau</text>
</g>

<!-- Entity UTILISATEUR -->
<g id="entity-UTILISATEUR">
	<g id="frame-UTILISATEUR">
		<rect x="671" y="252" width="104" height="25" fill="#abdda4" stroke="#abdda4" stroke-width="0"/>
		<rect x="671" y="277.0" width="104" height="111" fill="#e6f598" stroke="#e6f598" stroke-width="0"/>
		<rect x="671" y="252" width="104" height="136" fill="none" stroke="#66c2a5" stroke-width="2"/>
		<line x1="671" y1="277" x2="775" y2="277" stroke="#66c2a5" stroke-width="1"/>
	</g>
	<text x="681" y="269.7" fill="#000000" font-family="Verdana" font-size="12">UTILISATEUR</text>
	<text x="676" y="294.7" fill="#000000" font-family="Verdana" font-size="12">code utilisateur</text>
	<line x1="676" y1="297" x2="770" y2="297" stroke="#000000" stroke-width="1"/>
	<text x="676" y="311.7" fill="#000000" font-family="Verdana" font-size="12">pseudo</text>
	<text x="676" y="328.8" fill="#000000" font-family="Verdana" font-size="12">mail</text>
	<text x="676" y="345.8" fill="#000000" font-family="Verdana" font-size="12">mot de passe</text>
	<text x="676" y="362.8" fill="#000000" font-family="Verdana" font-size="12">niveau</text>
	<text x="676" y="379.8" fill="#000000" font-family="Verdana" font-size="12">points</text>
</g>

<!-- Entity ADMIN -->
<g id="entity-ADMIN">
	<g id="frame-ADMIN">
		<rect x="9" y="278" width="92" height="25" fill="#abdda4" stroke="#abdda4" stroke-width="0"/>
		<rect x="9" y="303.0" width="92" height="59" fill="#e6f598" stroke="#e6f598" stroke-width="0"/>
		<rect x="9" y="278" width="92" height="84" fill="none" stroke="#66c2a5" stroke-width="2"/>
		<line x1="9" y1="303" x2="101" y2="303" stroke="#66c2a5" stroke-width="1"/>
	</g>
	<text x="33" y="295.7" fill="#000000" font-family="Verdana" font-size="12">ADMIN</text>
	<text x="14" y="320.8" fill="#000000" font-family="Verdana" font-size="12">code admin</text>
	<line x1="14" y1="323" x2="85" y2="323" stroke="#000000" stroke-width="1"/>
	<text x="14" y="337.8" fill="#000000" font-family="Verdana" font-size="12">mail</text>
	<text x="14" y="354.8" fill="#000000" font-family="Verdana" font-size="12">mot de passe</text>
</g>

<!-- Entity FAVORIS -->
<g id="entity-FAVORIS">
	<g id="frame-FAVORIS">
		<rect x="580" y="9" width="140" height="25" fill="#abdda4" stroke="#abdda4" stroke-width="0"/>
		<rect x="580" y="34.0" width="140" height="43" fill="#e6f598" stroke="#e6f598" stroke-width="0"/>
		<rect x="580" y="9" width="140" height="68" fill="none" stroke="#66c2a5" stroke-width="2"/>
		<line x1="580" y1="34" x2="720" y2="34" stroke="#66c2a5" stroke-width="1"/>
	</g>
	<text x="622" y="26.7" fill="#000000" font-family="Verdana" font-size="12">FAVORIS</text>
	<text x="585" y="51.8" fill="#000000" font-family="Verdana" font-size="12">code utilisateur</text>
	<line x1="585" y1="54" x2="679" y2="54" stroke="#000000" stroke-width="1"/>
	<text x="585" y="68.8" fill="#000000" font-family="Verdana" font-size="12">code cryptomonnaies</text>
</g>

<!-- Entity QUESTION -->
<g id="entity-QUESTION">
	<g id="frame-QUESTION">
		<rect x="181" y="658" width="96" height="25" fill="#abdda4" stroke="#abdda4" stroke-width="0"/>
		<rect x="181" y="683.0" width="96" height="43" fill="#e6f598" stroke="#e6f598" stroke-width="0"/>
		<rect x="181" y="658" width="96" height="68" fill="none" stroke="#66c2a5" stroke-width="2"/>
		<line x1="181" y1="683" x2="277" y2="683" stroke="#66c2a5" stroke-width="1"/>
	</g>
	<text x="196" y="675.7" fill="#000000" font-family="Verdana" font-size="12">QUESTION</text>
	<text x="186" y="700.8" fill="#000000" font-family="Verdana" font-size="12">code question</text>
	<line x1="186" y1="703" x2="271" y2="703" stroke="#000000" stroke-width="1"/>
	<text x="186" y="717.8" fill="#000000" font-family="Verdana" font-size="12">code reponse</text>
</g>

<!-- Entity REPONSE -->
<g id="entity-REPONSE">
	<g id="frame-REPONSE">
		<rect x="529" y="650" width="96" height="25" fill="#abdda4" stroke="#abdda4" stroke-width="0"/>
		<rect x="529" y="675.0" width="96" height="59" fill="#e6f598" stroke="#e6f598" stroke-width="0"/>
		<rect x="529" y="650" width="96" height="84" fill="none" stroke="#66c2a5" stroke-width="2"/>
		<line x1="529" y1="675" x2="625" y2="675" stroke="#66c2a5" stroke-width="1"/>
	</g>
	<text x="548" y="667.7" fill="#000000" font-family="Verdana" font-size="12">REPONSE</text>
	<text x="534" y="692.8" fill="#000000" font-family="Verdana" font-size="12">code reponse</text>
	<line x1="534" y1="695" x2="615" y2="695" stroke="#000000" stroke-width="1"/>
	<text x="534" y="709.8" fill="#000000" font-family="Verdana" font-size="12">code question</text>
	<text x="534" y="726.8" fill="#000000" font-family="Verdana" font-size="12">texte</text>
</g>

<!-- Entity CHALLENGES -->
<g id="entity-CHALLENGES">
	<g id="frame-CHALLENGES">
		<rect x="374" y="506" width="92" height="25" fill="#abdda4" stroke="#abdda4" stroke-width="0"/>
		<rect x="374" y="531.0" width="92" height="111" fill="#e6f598" stroke="#e6f598" stroke-width="0"/>
		<rect x="374" y="506" width="92" height="136" fill="none" stroke="#66c2a5" stroke-width="2"/>
		<line x1="374" y1="531" x2="466" y2="531" stroke="#66c2a5" stroke-width="1"/>
	</g>
	<text x="379" y="523.7" fill="#000000" font-family="Verdana" font-size="12">CHALLENGES</text>
	<text x="379" y="548.7" fill="#000000" font-family="Verdana" font-size="12">nom</text>
	<line x1="379" y1="551" x2="407" y2="551" stroke="#000000" stroke-width="1"/>
	<text x="379" y="565.7" fill="#000000" font-family="Verdana" font-size="12">niveau</text>
	<text x="379" y="582.8" fill="#000000" font-family="Verdana" font-size="12">récompense</text>
	<text x="379" y="599.8" fill="#000000" font-family="Verdana" font-size="12">code articles</text>
	<text x="379" y="616.8" fill="#000000" font-family="Verdana" font-size="12">texte</text>
</g>

<!-- Entity NIVEAU -->
<g id="entity-NIVEAU">
	<g id="frame-NIVEAU">
		<rect x="13" y="540" width="84" height="25" fill="#abdda4" stroke="#abdda4" stroke-width="0"/>
		<rect x="13" y="565.0" width="84" height="43" fill="#e6f598" stroke="#e6f598" stroke-width="0"/>
		<rect x="13" y="540" width="84" height="68" fill="none" stroke="#66c2a5" stroke-width="2"/>
		<line x1="13" y1="565" x2="97" y2="565" stroke="#66c2a5" stroke-width="1"/>
	</g>
	<text x="31" y="557.7" fill="#000000" font-family="Verdana" font-size="12">NIVEAU</text>
	<text x="18" y="582.8" fill="#000000" font-family="Verdana" font-size="12">code niveau</text>
	<line x1="18" y1="585" x2="91" y2="585" stroke="#000000" stroke-width="1"/>
	<text x="18" y="599.8" fill="#000000" font-family="Verdana" font-size="12">nom</text>
</g>

<!-- Entity LEXIQUE -->
<g id="entity-LEXIQUE">
	<g id="frame-LEXIQUE">
		<rect x="347" y="66" width="66" height="25" fill="#abdda4" stroke="#abdda4" stroke-width="0"/>
		<rect x="347" y="91.0" width="66" height="43" fill="#e6f598" stroke="#e6f598" stroke-width="0"/>
		<rect x="347" y="66" width="66" height="68" fill="none" stroke="#66c2a5" stroke-width="2"/>
		<line x1="347" y1="91" x2="413" y2="91" stroke="#66c2a5" stroke-width="1"/>
	</g>
	<text x="353" y="83.7" fill="#000000" font-family="Verdana" font-size="12">LEXIQUE</text>
	<text x="352" y="108.8" fill="#000000" font-family="Verdana" font-size="12">nom mot</text>
	<line x1="352" y1="111" x2="407" y2="111" stroke="#000000" stroke-width="1"/>
	<text x="352" y="125.8" fill="#000000" font-family="Verdana" font-size="12">texte</text>
</g>

<!-- Entity CRYPTOMONNAIES -->
<g id="entity-CRYPTOMONNAIES">
	<g id="frame-CRYPTOMONNAIES">
		<rect x="357" y="186" width="126" height="25" fill="#abdda4" stroke="#abdda4" stroke-width="0"/>
		<rect x="357" y="211.0" width="126" height="43" fill="#e6f598" stroke="#e6f598" stroke-width="0"/>
		<rect x="357" y="186" width="126" height="68" fill="none" stroke="#66c2a5" stroke-width="2"/>
		<line x1="357" y1="211" x2="483" y2="211" stroke="#66c2a5" stroke-width="1"/>
	</g>
	<text x="362" y="203.7" fill="#000000" font-family="Verdana" font-size="12">CRYPTOMONNAIES</text>
	<text x="362" y="228.8" fill="#000000" font-family="Verdana" font-size="12">code cryptos</text>
	<line x1="362" y1="231" x2="440" y2="231" stroke="#000000" stroke-width="1"/>
	<text x="362" y="245.8" fill="#000000" font-family="Verdana" font-size="12">nom</text>
</g>
</svg>