<?xml version="1.0" standalone="no"?>
<!DOCTYPE svg PUBLIC "-//W3C//DTD SVG 1.1//EN"
"http://www.w3.org/Graphics/SVG/1.1/DTD/svg11.dtd">

<svg width="821" height="550" view_box="0 0 821 550"
xmlns="http://www.w3.org/2000/svg"
xmlns:link="http://www.w3.org/1999/xlink">\n\n<desc>Généré par Mocodo 2.3.7 le Tue, 07 Jun 2022 03:01:44</desc>

<rect id="frame" x="0" y="0" width="821" height="550" fill="#ffffbf" stroke="none" stroke-width="0"/>

<!-- Association APPARTENIR -->
<line x1="614" y1="499" x2="466" y2="499" stroke="#66c2a5" stroke-width="2"/>
<text x="539" y="516.0" fill="#d53e4f" font-family="Verdana" font-size="12">1,N</text>
<line x1="266" y1="499" x2="466" y2="499" stroke="#66c2a5" stroke-width="2"/>
<text x="319" y="516.0" fill="#d53e4f" font-family="Verdana" font-size="12">1,1</text>
<g id="association-APPARTENIR">
	<path d="M 498 474 a 14 14 90 0 1 14 14 V 499 h -92 V 488 a 14 14 90 0 1 14 -14" fill="#abdda4" stroke="#abdda4" stroke-width="0"/>
	<path d="M 512 499.0 v 11 a 14 14 90 0 1 -14 14 H 434 a 14 14 90 0 1 -14 -14 V 499.0 H 92" fill="#e6f598" stroke="#e6f598" stroke-width="0"/>
	<rect x="420" y="474" width="92" height="50" fill="none" rx="14" stroke="#66c2a5" stroke-width="2"/>
	<line x1="420" y1="499" x2="512" y2="499" stroke="#66c2a5" stroke-width="1"/>
	<text x="427" y="491.7" fill="#000000" font-family="Verdana" font-size="12">APPARTENIR</text>
</g>

<!-- Association ENVOIE COURS EN TEMPS REEL -->
<line x1="69" y1="43" x2="266" y2="43" stroke="#66c2a5" stroke-width="2"/>
<text x="134" y="60.0" fill="#d53e4f" font-family="Verdana" font-size="12">0,N</text>
<line x1="466" y1="43" x2="266" y2="43" stroke="#66c2a5" stroke-width="2"/>
<text x="376" y="35.0" fill="#d53e4f" font-family="Verdana" font-size="12">1,N</text>
<g id="association-ENVOIE COURS EN TEMPS REEL">
	<path d="M 357 18 a 14 14 90 0 1 14 14 V 43 h -210 V 32 a 14 14 90 0 1 14 -14" fill="#abdda4" stroke="#abdda4" stroke-width="0"/>
	<path d="M 371 43.0 v 11 a 14 14 90 0 1 -14 14 H 175 a 14 14 90 0 1 -14 -14 V 43.0 H 210" fill="#e6f598" stroke="#e6f598" stroke-width="0"/>
	<rect x="161" y="18" width="210" height="50" fill="none" rx="14" stroke="#66c2a5" stroke-width="2"/>
	<line x1="161" y1="43" x2="371" y2="43" stroke="#66c2a5" stroke-width="1"/>
	<text x="168" y="35.7" fill="#000000" font-family="Verdana" font-size="12">ENVOIE COURS EN TEMPS REEL</text>
</g>

<!-- Association DIRIGE VERS -->
<line x1="266" y1="372" x2="69" y2="499" stroke="#66c2a5" stroke-width="2"/>
<text x="193" y="398.614072569" fill="#d53e4f" font-family="Verdana" font-size="12">1,N</text>
<line x1="266" y1="499" x2="69" y2="499" stroke="#66c2a5" stroke-width="2"/>
<text x="191" y="516.0" fill="#d53e4f" font-family="Verdana" font-size="12">1,N</text>
<g id="association-DIRIGE VERS">
	<path d="M 103 474 a 14 14 90 0 1 14 14 V 499 h -96 V 488 a 14 14 90 0 1 14 -14" fill="#abdda4" stroke="#abdda4" stroke-width="0"/>
	<path d="M 117 499.0 v 11 a 14 14 90 0 1 -14 14 H 35 a 14 14 90 0 1 -14 -14 V 499.0 H 96" fill="#e6f598" stroke="#e6f598" stroke-width="0"/>
	<rect x="21" y="474" width="96" height="50" fill="none" rx="14" stroke="#66c2a5" stroke-width="2"/>
	<line x1="21" y1="499" x2="117" y2="499" stroke="#66c2a5" stroke-width="1"/>
	<text x="28" y="491.7" fill="#000000" font-family="Verdana" font-size="12">DIRIGE VERS</text>
</g>

<!-- Association PEUT PARTICIPER -->
<line x1="760" y1="161" x2="466" y2="372" stroke="#66c2a5" stroke-width="2"/>
<text x="681" y="195.768938068" fill="#d53e4f" font-family="Verdana" font-size="12">1,N</text>
<line x1="266" y1="372" x2="466" y2="372" stroke="#66c2a5" stroke-width="2"/>
<text x="317" y="389.0" fill="#d53e4f" font-family="Verdana" font-size="12">0,1</text>
<g id="association-PEUT PARTICIPER">
	<path d="M 514 347 a 14 14 90 0 1 14 14 V 372 h -124 V 361 a 14 14 90 0 1 14 -14" fill="#abdda4" stroke="#abdda4" stroke-width="0"/>
	<path d="M 528 372.0 v 11 a 14 14 90 0 1 -14 14 H 418 a 14 14 90 0 1 -14 -14 V 372.0 H 124" fill="#e6f598" stroke="#e6f598" stroke-width="0"/>
	<rect x="404" y="347" width="124" height="50" fill="none" rx="14" stroke="#66c2a5" stroke-width="2"/>
	<line x1="404" y1="372" x2="528" y2="372" stroke="#66c2a5" stroke-width="1"/>
	<text x="411" y="364.7" fill="#000000" font-family="Verdana" font-size="12">PEUT PARTICIPER</text>
</g>

<!-- Association PEUT CONSULTER -->
<line x1="760" y1="161" x2="614" y2="161" stroke="#66c2a5" stroke-width="2"/>
<text x="681" y="178.0" fill="#d53e4f" font-family="Verdana" font-size="12">0,N</text>
<line x1="466" y1="279" x2="614" y2="161" stroke="#66c2a5" stroke-width="2"/>
<text x="504" y="263.738892898" fill="#d53e4f" font-family="Verdana" font-size="12">0,N</text>
<line x1="466" y1="161" x2="614" y2="161" stroke="#66c2a5" stroke-width="2"/>
<text x="511" y="178.0" fill="#d53e4f" font-family="Verdana" font-size="12">0,N</text>
<line x1="466" y1="43" x2="614" y2="161" stroke="#66c2a5" stroke-width="2"/>
<text x="487.594364088" y="94" fill="#d53e4f" font-family="Verdana" font-size="12">0,N</text>
<g id="association-PEUT CONSULTER">
	<path d="M 662 136 a 14 14 90 0 1 14 14 V 161 h -124 V 150 a 14 14 90 0 1 14 -14" fill="#abdda4" stroke="#abdda4" stroke-width="0"/>
	<path d="M 676 161.0 v 11 a 14 14 90 0 1 -14 14 H 566 a 14 14 90 0 1 -14 -14 V 161.0 H 124" fill="#e6f598" stroke="#e6f598" stroke-width="0"/>
	<rect x="552" y="136" width="124" height="50" fill="none" rx="14" stroke="#66c2a5" stroke-width="2"/>
	<line x1="552" y1="161" x2="676" y2="161" stroke="#66c2a5" stroke-width="1"/>
	<text x="559" y="153.7" fill="#000000" font-family="Verdana" font-size="12">PEUT CONSULTER</text>
</g>

<!-- Association PEUT AJOUTER ET MODIFIER -->
<line x1="69" y1="161" x2="266" y2="161" stroke="#66c2a5" stroke-width="2"/>
<text x="120" y="178.0" fill="#d53e4f" font-family="Verdana" font-size="12">0,N</text>
<line x1="466" y1="279" x2="266" y2="161" stroke="#66c2a5" stroke-width="2"/>
<text x="406" y="271.955914317" fill="#d53e4f" font-family="Verdana" font-size="12">1,N</text>
<line x1="466" y1="161" x2="266" y2="161" stroke="#66c2a5" stroke-width="2"/>
<text x="399" y="178.0" fill="#d53e4f" font-family="Verdana" font-size="12">1,N</text>
<line x1="466" y1="43" x2="266" y2="161" stroke="#66c2a5" stroke-width="2"/>
<text x="408.798795673" y="94" fill="#d53e4f" font-family="Verdana" font-size="12">1,N</text>
<line x1="266" y1="372" x2="266" y2="161" stroke="#66c2a5" stroke-width="2"/>
<text x="271.0" y="296" fill="#d53e4f" font-family="Verdana" font-size="12">0,N</text>
<g id="association-PEUT AJOUTER ET MODIFIER">
	<path d="M 348 136 a 14 14 90 0 1 14 14 V 161 h -192 V 150 a 14 14 90 0 1 14 -14" fill="#abdda4" stroke="#abdda4" stroke-width="0"/>
	<path d="M 362 161.0 v 11 a 14 14 90 0 1 -14 14 H 184 a 14 14 90 0 1 -14 -14 V 161.0 H 192" fill="#e6f598" stroke="#e6f598" stroke-width="0"/>
	<rect x="170" y="136" width="192" height="50" fill="none" rx="14" stroke="#66c2a5" stroke-width="2"/>
	<line x1="170" y1="161" x2="362" y2="161" stroke="#66c2a5" stroke-width="1"/>
	<text x="177" y="153.7" fill="#000000" font-family="Verdana" font-size="12">PEUT AJOUTER ET MODIFIER</text>
</g>

<!-- Association PEUT AJOUTER -->
<line x1="760" y1="161" x2="614" y2="43" stroke="#66c2a5" stroke-width="2"/>
<text x="681" y="129.956283245" fill="#d53e4f" font-family="Verdana" font-size="12">1,N</text>
<line x1="466" y1="43" x2="614" y2="43" stroke="#66c2a5" stroke-width="2"/>
<text x="534" y="35.0" fill="#d53e4f" font-family="Verdana" font-size="12">0,N</text>
<g id="association-PEUT AJOUTER">
	<path d="M 653 18 a 14 14 90 0 1 14 14 V 43 h -106 V 32 a 14 14 90 0 1 14 -14" fill="#abdda4" stroke="#abdda4" stroke-width="0"/>
	<path d="M 667 43.0 v 11 a 14 14 90 0 1 -14 14 H 575 a 14 14 90 0 1 -14 -14 V 43.0 H 106" fill="#e6f598" stroke="#e6f598" stroke-width="0"/>
	<rect x="561" y="18" width="106" height="50" fill="none" rx="14" stroke="#66c2a5" stroke-width="2"/>
	<line x1="561" y1="43" x2="667" y2="43" stroke="#66c2a5" stroke-width="1"/>
	<text x="568" y="35.7" fill="#000000" font-family="Verdana" font-size="12">PEUT AJOUTER</text>
</g>

<!-- Entity ARTICLES -->
<g id="entity-ARTICLES">
	<g id="frame-ARTICLES">
		<rect x="426" y="102" width="80" height="25" fill="#fdae61" stroke="#fdae61" stroke-width="0"/>
		<rect x="426" y="127.0" width="80" height="93" fill="#fee08b" stroke="#fee08b" stroke-width="0"/>
		<rect x="426" y="102" width="80" height="118" fill="none" stroke="#f46d43" stroke-width="2"/>
		<line x1="426" y1="127" x2="506" y2="127" stroke="#f46d43" stroke-width="1"/>
	</g>
	<text x="435" y="119.7" fill="#000000" font-family="Verdana" font-size="12">ARTICLES</text>
	<text x="431" y="144.7" fill="#000000" font-family="Verdana" font-size="12">code article</text>
	<line x1="431" y1="147" x2="501" y2="147" stroke="#000000" stroke-width="1"/>
	<text x="431" y="161.8" fill="#000000" font-family="Verdana" font-size="12">nom</text>
	<text x="431" y="178.8" fill="#000000" font-family="Verdana" font-size="12">auteur</text>
	<text x="431" y="195.8" fill="#000000" font-family="Verdana" font-size="12">texte</text>
	<text x="431" y="212.8" fill="#000000" font-family="Verdana" font-size="12">niveau</text>
</g>

<!-- Entity UTILISATEUR -->
<g id="entity-UTILISATEUR">
	<g id="frame-UTILISATEUR">
		<rect x="708" y="85" width="104" height="25" fill="#fdae61" stroke="#fdae61" stroke-width="0"/>
		<rect x="708" y="110.0" width="104" height="127" fill="#fee08b" stroke="#fee08b" stroke-width="0"/>
		<rect x="708" y="85" width="104" height="152" fill="none" stroke="#f46d43" stroke-width="2"/>
		<line x1="708" y1="110" x2="812" y2="110" stroke="#f46d43" stroke-width="1"/>
	</g>
	<text x="718" y="102.7" fill="#000000" font-family="Verdana" font-size="12">UTILISATEUR</text>
	<text x="713" y="127.7" fill="#000000" font-family="Verdana" font-size="12">code utilisateur</text>
	<line x1="713" y1="130" x2="807" y2="130" stroke="#000000" stroke-width="1"/>
	<text x="713" y="144.7" fill="#000000" font-family="Verdana" font-size="12">pseudo</text>
	<text x="713" y="161.8" fill="#000000" font-family="Verdana" font-size="12">mail</text>
	<text x="713" y="178.8" fill="#000000" font-family="Verdana" font-size="12">mot de passe</text>
	<text x="713" y="195.8" fill="#000000" font-family="Verdana" font-size="12">crypto favoris</text>
	<text x="713" y="212.8" fill="#000000" font-family="Verdana" font-size="12">niveau</text>
	<text x="713" y="229.8" fill="#000000" font-family="Verdana" font-size="12">points</text>
</g>

<!-- Entity ADMIN -->
<g id="entity-ADMIN">
	<g id="frame-ADMIN">
		<rect x="23" y="119" width="92" height="25" fill="#fdae61" stroke="#fdae61" stroke-width="0"/>
		<rect x="23" y="144.0" width="92" height="59" fill="#fee08b" stroke="#fee08b" stroke-width="0"/>
		<rect x="23" y="119" width="92" height="84" fill="none" stroke="#f46d43" stroke-width="2"/>
		<line x1="23" y1="144" x2="115" y2="144" stroke="#f46d43" stroke-width="1"/>
	</g>
	<text x="47" y="136.7" fill="#000000" font-family="Verdana" font-size="12">ADMIN</text>
	<text x="28" y="161.8" fill="#000000" font-family="Verdana" font-size="12">code admin</text>
	<line x1="28" y1="164" x2="99" y2="164" stroke="#000000" stroke-width="1"/>
	<text x="28" y="178.8" fill="#000000" font-family="Verdana" font-size="12">mail</text>
	<text x="28" y="195.8" fill="#000000" font-family="Verdana" font-size="12">mot de passe</text>
</g>

<!-- Entity QUESTION -->
<g id="entity-QUESTION">
	<g id="frame-QUESTION">
		<rect x="218" y="465" width="96" height="25" fill="#fdae61" stroke="#fdae61" stroke-width="0"/>
		<rect x="218" y="490.0" width="96" height="43" fill="#fee08b" stroke="#fee08b" stroke-width="0"/>
		<rect x="218" y="465" width="96" height="68" fill="none" stroke="#f46d43" stroke-width="2"/>
		<line x1="218" y1="490" x2="314" y2="490" stroke="#f46d43" stroke-width="1"/>
	</g>
	<text x="233" y="482.7" fill="#000000" font-family="Verdana" font-size="12">QUESTION</text>
	<text x="223" y="507.8" fill="#000000" font-family="Verdana" font-size="12">code question</text>
	<line x1="223" y1="510" x2="308" y2="510" stroke="#000000" stroke-width="1"/>
	<text x="223" y="524.8" fill="#000000" font-family="Verdana" font-size="12">code reponse</text>
</g>

<!-- Entity API CRYPTOS EXT -->
<g id="entity-API CRYPTOS EXT">
	<g id="frame-API CRYPTOS EXT">
		<rect x="9" y="18" width="120" height="25" fill="#fdae61" stroke="#fdae61" stroke-width="0"/>
		<rect x="9" y="43.0" width="120" height="25" fill="#fee08b" stroke="#fee08b" stroke-width="0"/>
		<rect x="9" y="18" width="120" height="50" fill="none" stroke="#f46d43" stroke-width="2"/>
		<line x1="9" y1="43" x2="129" y2="43" stroke="#f46d43" stroke-width="1"/>
	</g>
	<text x="14" y="35.7" fill="#000000" font-family="Verdana" font-size="12">API CRYPTOS EXT</text>
	<text x="14" y="60.8" fill="#000000" font-family="Verdana" font-size="12">code crypto</text>
	<line x1="14" y1="63" x2="85" y2="63" stroke="#000000" stroke-width="1"/>
</g>

<!-- Entity REPONSE -->
<g id="entity-REPONSE">
	<g id="frame-REPONSE">
		<rect x="566" y="457" width="96" height="25" fill="#fdae61" stroke="#fdae61" stroke-width="0"/>
		<rect x="566" y="482.0" width="96" height="59" fill="#fee08b" stroke="#fee08b" stroke-width="0"/>
		<rect x="566" y="457" width="96" height="84" fill="none" stroke="#f46d43" stroke-width="2"/>
		<line x1="566" y1="482" x2="662" y2="482" stroke="#f46d43" stroke-width="1"/>
	</g>
	<text x="585" y="474.7" fill="#000000" font-family="Verdana" font-size="12">REPONSE</text>
	<text x="571" y="499.8" fill="#000000" font-family="Verdana" font-size="12">code reponse</text>
	<line x1="571" y1="502" x2="652" y2="502" stroke="#000000" stroke-width="1"/>
	<text x="571" y="516.8" fill="#000000" font-family="Verdana" font-size="12">code question</text>
	<text x="571" y="533.8" fill="#000000" font-family="Verdana" font-size="12">texte</text>
</g>

<!-- Entity CHALLENGES -->
<g id="entity-CHALLENGES">
	<g id="frame-CHALLENGES">
		<rect x="220" y="304" width="92" height="25" fill="#fdae61" stroke="#fdae61" stroke-width="0"/>
		<rect x="220" y="329.0" width="92" height="111" fill="#fee08b" stroke="#fee08b" stroke-width="0"/>
		<rect x="220" y="304" width="92" height="136" fill="none" stroke="#f46d43" stroke-width="2"/>
		<line x1="220" y1="329" x2="312" y2="329" stroke="#f46d43" stroke-width="1"/>
	</g>
	<text x="225" y="321.7" fill="#000000" font-family="Verdana" font-size="12">CHALLENGES</text>
	<text x="225" y="346.7" fill="#000000" font-family="Verdana" font-size="12">nom</text>
	<line x1="225" y1="349" x2="253" y2="349" stroke="#000000" stroke-width="1"/>
	<text x="225" y="363.7" fill="#000000" font-family="Verdana" font-size="12">niveau</text>
	<text x="225" y="380.8" fill="#000000" font-family="Verdana" font-size="12">récompense</text>
	<text x="225" y="397.8" fill="#000000" font-family="Verdana" font-size="12">code articles</text>
	<text x="225" y="414.8" fill="#000000" font-family="Verdana" font-size="12">texte</text>
	<text x="225" y="431.8" fill="#000000" font-family="Verdana" font-size="12">code quizz</text>
</g>

<!-- Entity LEXIQUE -->
<g id="entity-LEXIQUE">
	<g id="frame-LEXIQUE">
		<rect x="433" y="245" width="66" height="25" fill="#fdae61" stroke="#fdae61" stroke-width="0"/>
		<rect x="433" y="270.0" width="66" height="43" fill="#fee08b" stroke="#fee08b" stroke-width="0"/>
		<rect x="433" y="245" width="66" height="68" fill="none" stroke="#f46d43" stroke-width="2"/>
		<line x1="433" y1="270" x2="499" y2="270" stroke="#f46d43" stroke-width="1"/>
	</g>
	<text x="439" y="262.7" fill="#000000" font-family="Verdana" font-size="12">LEXIQUE</text>
	<text x="438" y="287.8" fill="#000000" font-family="Verdana" font-size="12">nom mot</text>
	<line x1="438" y1="290" x2="493" y2="290" stroke="#000000" stroke-width="1"/>
	<text x="438" y="304.8" fill="#000000" font-family="Verdana" font-size="12">texte</text>
</g>

<!-- Entity CRYPTOMONNAIES -->
<g id="entity-CRYPTOMONNAIES">
	<g id="frame-CRYPTOMONNAIES">
		<rect x="403" y="9" width="126" height="25" fill="#fdae61" stroke="#fdae61" stroke-width="0"/>
		<rect x="403" y="34.0" width="126" height="43" fill="#fee08b" stroke="#fee08b" stroke-width="0"/>
		<rect x="403" y="9" width="126" height="68" fill="none" stroke="#f46d43" stroke-width="2"/>
		<line x1="403" y1="34" x2="529" y2="34" stroke="#f46d43" stroke-width="1"/>
	</g>
	<text x="408" y="26.7" fill="#000000" font-family="Verdana" font-size="12">CRYPTOMONNAIES</text>
	<text x="408" y="51.8" fill="#000000" font-family="Verdana" font-size="12">code cryptos</text>
	<line x1="408" y1="54" x2="486" y2="54" stroke="#000000" stroke-width="1"/>
	<text x="408" y="68.8" fill="#000000" font-family="Verdana" font-size="12">nom</text>
</g>
</svg>